<svg width="295" height="72" viewBox="0 0 295 72" fill="none" xmlns="http://www.w3.org/2000/svg">
<path d="M24.2511 4.69238C29.3725 -1.07468 38.1992 -1.59813 43.9663 3.52321L67.3076 24.2511C73.0747 29.3725 73.5981 38.1992 68.4768 43.9663L47.7489 67.3076C42.6275 73.0747 33.8008 73.5981 28.0337 68.4768L4.69238 47.7489C-1.07468 42.6275 -1.59813 33.8008 3.52321 28.0337L24.2511 4.69238Z" fill="#A127FF"/>
<mask id="mask0_314_127" style="mask-type:alpha" maskUnits="userSpaceOnUse" x="0" y="0" width="72" height="72">
<path d="M24.625 5.02441C29.563 -0.536161 38.0742 -1.04052 43.6348 3.89746L66.9756 24.625C72.5362 29.563 73.0405 38.0742 68.1025 43.6348L47.375 66.9756C42.437 72.5362 33.9258 73.0405 28.3652 68.1025L5.02441 47.375C-0.536161 42.437 -1.04052 33.9258 3.89746 28.3652L24.625 5.02441Z" fill="#A127FF" stroke="#E6C5FF"/>
</mask>
<g mask="url(#mask0_314_127)">
<path d="M-12.9526 44.5623C-12.8789 44.3571 -12.7785 44.1554 -12.6591 43.9608C-12.0694 43.0224 -11.3324 42.3723 -10.6756 41.9223C-10.4098 41.742 -10.1759 42.1282 -9.97966 42.0199C-9.5961 41.8087 -9.52039 41.3933 -9.11912 41.225C-8.98474 41.1709 -8.57708 41.728 -8.4485 41.6622C-7.7542 41.3074 -7.43838 40.6956 -6.85327 40.2686C-6.60944 40.0913 -6.36791 39.9145 -6.12786 39.7374C-3.50753 37.814 -1.18719 35.9427 1.48944 34.0973C1.74828 33.9203 2.04654 33.7616 2.36247 33.607C3.23727 33.176 4.21899 32.8038 4.87835 32.1334C4.98326 32.026 4.58578 31.582 4.58246 31.526C4.55258 30.6566 5.07791 31.7354 5.40412 31.7148C6.69552 31.6297 7.81011 31.0779 8.74118 30.4065C8.74686 30.4024 8.75253 30.3984 8.75818 30.3943C9.17056 30.1 8.22308 29.2393 8.98145 29.625C9.03312 29.6513 9.15537 30.2798 9.31561 30.2841C9.6598 30.2951 10.3215 29.9329 10.6979 29.8939C11.3786 29.8281 11.5243 29.8099 12.0679 29.7602C12.2664 29.7467 12.4507 29.7622 12.6223 29.7868C13.0776 29.8526 13.5303 29.9795 13.9503 29.8749C14.0742 29.8425 13.9073 29.2008 14.1079 29.0915C14.3093 28.9816 14.8439 29.0436 15.0198 29.2008C15.1957 29.3572 15.1033 29.8593 15.1314 29.9758C15.349 30.9571 16.0129 29.6378 16.107 29.6117C16.1951 29.5842 16.2829 29.5617 16.3703 29.5436C17.7928 29.2547 18.9497 30.1147 20.2852 30.4685C20.575 30.5452 20.8839 30.6179 21.1667 30.6816C21.8923 30.8382 22.649 30.9669 23.2729 31.2251C23.9245 31.4964 24.4514 31.8654 25.0071 32.1856C25.2839 32.3516 25.5711 32.4968 25.892 32.5933C25.9856 32.6222 26.1422 31.8754 26.2544 31.9081C27.0975 32.1526 27.9775 32.467 28.5977 32.836C29.3111 33.0488 29.4673 33.1966 29.6507 33.3047C29.8157 33.4152 29.9108 33.4982 29.9972 33.5775C30.164 33.7337 30.2744 33.8686 30.3849 34.01C30.4628 34.111 30.0151 34.6223 30.076 34.7588C30.2262 35.0819 30.39 35.5354 30.6565 35.8219C31.0656 36.2669 31.6921 36.2883 32.5139 34.7188C32.9045 34.9811 33.4118 35.2571 33.713 35.9411C33.9094 36.3819 33.4328 37.0016 33.8853 36.803C33.9876 36.7589 34.0378 36.1186 34.1785 36.0985C34.5114 36.0511 34.84 36.1425 35.1925 36.2084C35.5189 36.2738 35.811 36.3188 36.116 36.2632C36.2581 36.2361 36.3935 35.6851 36.4586 35.5986C37.0056 34.9037 37.049 36.355 37.1129 36.4808C37.6273 37.4304 38.2468 37.3365 38.8907 37.5684C39.0383 37.6217 39.1011 36.8415 39.2495 36.866C39.3894 36.8908 39.5254 36.9198 39.6517 36.9513C40.2851 37.1152 40.6604 37.313 41.2411 37.7238C41.3936 37.8368 41.0956 38.4342 41.1622 38.5208C41.4614 38.8955 41.8113 37.719 42.114 38.0581C42.1145 38.0587 42.115 38.0593 42.1155 38.0599C42.1742 38.1361 42.0127 38.6601 42.013 38.7221C42.017 39.7035 42.5035 38.4243 42.5645 38.4075C43.3519 38.1674 43.4773 39.6479 44.1889 39.6047C44.2742 39.5981 44.2507 38.8727 44.4809 38.896C45.4448 38.9902 46.4116 39.2425 47.3026 39.6157C47.793 39.8277 48.2707 40.0729 48.7402 40.3485C48.9378 40.4627 48.7183 40.9649 48.7218 41.031C48.8139 42.0685 49.1321 40.7349 49.2018 40.6912C49.7633 40.3847 50.2272 41.5544 50.6398 39.9444C51.0956 40.0768 51.5567 40.1222 52.0575 40.1221C52.2959 40.1701 52.8141 39.9058 53.5141 39.4858C54.1241 39.1296 54.7259 38.832 55.6286 38.5093C55.6586 38.4967 56.1703 38.9327 56.2293 38.9037C56.9477 38.5345 56.0093 38.047 55.1542 37.0119C54.9343 36.7593 56.4437 37.2274 56.5608 37.2495C56.9825 37.351 57.7795 37.964 57.8701 37.9682C58.5962 37.9763 55.7018 36.3907 55.9573 35.9507C55.97 35.9398 56.46 36.3043 56.5335 36.2981C56.7633 36.2809 56.6244 36.0423 56.8732 36.035C57.1702 36.0279 57.6938 36.2274 58.0504 36.3063C58.3765 36.3899 58.5653 36.3537 58.2883 35.9463C58.2128 35.8377 56.5806 34.9229 56.8653 34.6256C56.9797 34.5099 57.329 33.8631 57.5413 33.7427C57.7526 33.6243 58.197 34.0562 58.2271 34.0567C59.202 33.9772 59.3766 34.3298 60.5349 34.6917C61.6883 35.0538 59.2431 33.6793 59.0356 33.417C58.8286 33.155 59.6123 33.1315 59.8615 33.1638C60.1105 33.1956 60.3691 33.5061 60.527 33.4966C61.5624 33.4338 59.4888 32.5312 59.2245 32.1159C58.9951 31.7489 59.1274 31.6187 59.403 31.5941C59.8685 31.5563 60.7315 31.8417 60.9993 31.6927C61.1154 31.6276 60.6749 31.4271 60.7049 31.312C60.8355 30.8549 61.5025 31.0571 61.3528 30.3054C61.3264 30.1846 60.6347 29.0661 61.4959 29.4743C61.619 29.5343 61.945 29.9492 62.149 29.8914C62.4543 29.8055 62.8504 29.5286 62.9074 29.2042C62.9498 28.9637 62.1532 28.5743 62.5253 28.5554C62.6907 28.5478 62.922 29.039 63.2002 28.9986C63.405 28.9683 63.6477 28.7315 63.8128 28.5407C63.8672 28.4777 63.9114 28.4186 63.9409 28.3766C64.0509 28.2174 63.4827 27.887 63.4596 27.8468C63.3251 27.6199 63.276 27.1715 63.292 27.1486C63.9608 26.1272 65.2182 25.3141 65.7919 24.0002C65.9485 23.6467 66.1076 23.342 66.2484 23.0332C66.3202 22.8805 65.6969 22.5814 65.7021 22.5541C65.8278 21.8918 67.0194 23.3379 67.7081 23.437C66.5866 22.6223 66.9157 22.6017 67.0408 22.2271C67.1022 22.0447 66.6372 21.7609 66.6067 21.7124C66.1874 20.9572 67.0952 21.5319 67.2795 21.6505C67.9673 22.077 67.4252 21.2943 67.883 21.5864C68.3296 21.8844 68.7029 22.6096 68.9194 22.3837C68.6415 21.9623 67.5573 21.207 67.599 20.8746C67.7319 19.9082 68.9586 19.4319 69.8153 19.1397C70.0666 19.0643 70.2866 18.9874 70.4304 18.9001C71.0178 18.5385 71.1239 18.3109 71.5476 18.1657C72.315 17.8937 71.4578 17.377 71.4863 16.7427C71.5148 16.1055 72.9947 17.9654 73.3958 18.2858C73.7963 18.6063 73.4879 18.1762 73.7412 18.3201C73.9957 18.4628 74.1058 18.8379 74.3212 18.7753C74.5375 18.7121 74.2911 17.6868 73.9661 17.2599C73.4442 16.5711 72.74 16.0165 72.7225 15.7608C72.7102 15.6869 72.7639 15.6447 72.9103 15.6377C72.9468 15.6356 73.3296 16.1344 73.448 16.1031C74.38 15.8308 75.0307 15.1208 75.9479 14.7233C76.0749 14.669 76.5201 15.2109 76.5998 15.1846C77.4312 14.9141 76.3766 14.3439 75.6951 13.1615C76.9147 14.3871 77.852 14.92 78.2371 14.5184C78.4706 14.2774 77.8806 13.8053 77.6494 13.2769C77.5803 13.1168 78.1226 13.2998 77.8991 13.0216C77.1743 12.1063 76.074 11.3705 76.8928 11.2814C76.9297 11.2794 77.3141 11.7915 77.4085 11.7521C77.5655 11.6876 77.6305 11.5802 77.6476 11.4451C77.6953 11.0574 77.3409 10.43 77.6511 10.0042C77.9815 9.54912 79.1956 9.50297 79.738 9.24587C80.9094 10.7917 81.0514 10.1289 80.4546 8.91137C80.7967 8.73178 81.0907 8.43576 81.4965 8.38549C81.6351 8.36825 81.8803 8.88037 81.9273 8.92195C82.6541 9.58091 82.0649 8.41091 82.1065 8.32257C82.5702 7.42678 83.6905 7.89449 83.8931 6.64662C83.9002 6.60188 83.2481 5.421 83.9435 6.15188C83.9903 6.20295 84.071 6.86901 84.429 6.71057C84.5232 6.66924 84.6626 6.65695 84.8216 6.64468C85.2537 6.61396 85.8123 6.59694 85.9217 6.00483C85.9576 5.81037 85.6964 4.69815 86.3498 5.30932C86.4376 5.39283 86.5966 5.74721 86.7469 5.9091C87.2268 6.42426 86.6308 5.19576 87.368 6.10789C88.1067 7.01911 88.8737 7.58014 88.9449 6.6234C88.9482 6.59493 88.5277 5.59242 88.6829 5.52473C88.9305 5.41782 89.3721 5.42815 89.613 5.28542C89.728 5.21682 89.3261 4.67334 89.3404 4.65129C89.9447 3.88336 90.7973 4.09366 91.7661 3.8533C91.9452 3.8099 91.9461 2.76424 92.5963 3.23053C93.3078 3.7411 94.5648 6.80781 94.9416 5.70268C95.0958 5.25861 93.4544 1.3939 95.0535 2.98038C95.5095 2.37829 96.1978 2.25237 96.8316 2.02169C97.3185 1.84337 97.7681 1.60744 98.0616 1.05349C98.0912 0.996994 97.6547 -0.097856 97.7701 -0.147325C97.948 -0.221987 98.3153 0.193625 98.4492 0.155896C99.0258 0.00450706 99.2307 -0.665492 99.7381 -0.890885C99.9301 -0.977362 100.162 -0.45887 100.391 -0.561574C100.619 -0.663799 100.379 -1.38669 100.855 -1.25123C101.136 -1.16973 101.784 -0.432641 102.219 -0.0995684C102.347 -0.0059042 102.46 0.0535598 102.543 0.0530939C101.834 -1.26363 102.051 -1.34833 102.229 -1.89113C102.264 -1.99656 101.942 -2.4151 101.946 -2.48873C101.958 -2.79875 102.286 -2.48455 102.28 -2.81085C102.278 -2.88941 102.043 -3.34253 102.03 -3.43281C101.906 -4.21711 102.806 -3.38749 102.955 -3.23872C103.54 -2.68398 103.35 -3.33129 103.671 -3.15681C103.985 -2.979 103.88 -2.50925 104.173 -2.45212C104.78 -2.33373 105.306 -2.67621 105.773 -2.87114C105.958 -2.95203 105.541 -3.50884 105.561 -3.53472C105.774 -3.77944 106.246 -3.59332 106.25 -4.01626C106.241 -4.16462 106.173 -4.37872 106.011 -4.69947C108.329 -2.0466 106.013 -5.12446 106.909 -4.9082C106.98 -4.8895 108.009 -3.58462 108.006 -3.28094C108.004 -2.97786 107.478 -3.23751 107.512 -2.79017C107.517 -2.7268 107.761 -2.17892 107.973 -1.73997C107.83 -1.43874 107.824 -1.2753 107.81 -1.13656C107.8 -1.00198 107.795 -0.912572 107.789 -0.887611C107.566 0.0588069 106.534 -2.21054 106.438 -2.3127C105.599 -3.54093 105.951 -1.85402 105.904 -1.70304C105.69 -1.01407 105.174 -1.1518 104.98 -0.633175C104.854 -0.297234 105.561 1.16678 105.362 1.21136C104.707 1.36004 103.429 -0.530173 103.799 1.50189C103.878 1.93633 104.845 3.43103 103.76 2.43268C103.737 2.41136 103.615 2.28767 103.471 2.16617C103.207 1.9206 102.859 1.68569 103.019 2.21011C103.05 2.31007 103.311 2.75724 103.306 2.81003C103.273 3.1552 102.941 2.87326 102.831 3.17076C102.722 3.46795 102.606 3.8847 102.247 3.89814C102.031 3.9066 101.323 3.20821 101.122 3.05341C100.552 2.6032 100.89 3.70077 100.331 3.07467C99.772 2.44401 99.392 1.20751 98.7676 0.955919C99.4396 2.12111 100.112 3.32759 100.777 4.50539C100.116 4.85172 99.3417 4.96787 98.6641 5.25699C98.4984 5.32717 98.3331 5.4114 98.1814 5.51031C98.0865 5.57368 98.5426 6.14676 98.4492 6.23136C98.0598 6.58179 97.4217 6.34739 97.0644 6.78091C96.7894 7.11876 96.7739 8.00274 96.4984 8.37586C95.5267 7.15477 95.2355 7.91311 94.7721 8.00894C94.6102 8.04306 94.4195 7.67877 94.2567 7.61565C93.6457 7.38717 94.4783 8.4807 94.4803 8.72428C94.4883 9.76429 92.9577 7.09294 92.4811 7.44462C92.4551 7.46248 92.9209 9.08098 92.9253 9.19552C92.96 9.93886 92.5996 8.72318 92.3593 8.71822C91.9209 8.7089 91.4992 8.49542 91.3474 9.13134C91.3036 9.31903 91.5357 10.3615 90.9296 9.79488C90.8501 9.72074 90.5999 9.23918 90.5613 9.2245C89.8825 8.99922 90.7104 10.4891 90.7577 11.1256C90.8069 11.7608 89.8619 10.9452 89.6187 10.6938C88.9893 10.0431 89.5818 10.2831 89.5501 10.2022C89.1672 9.24139 88.9854 9.54785 88.7399 9.58874C87.8796 8.15568 87.6417 8.40789 88.4867 9.63824C88.5791 9.77253 88.6606 9.54612 88.7399 9.58874C89.3733 11.1153 89.1746 11.4714 88.0634 10.3449C87.5432 9.81689 87.2722 9.00508 86.9388 9.55493C86.7959 9.78868 87.3713 10.6262 87.4218 11.047C87.4251 11.0765 87.4259 11.104 87.4236 11.1291C87.351 12.0032 86.2434 11.4172 85.8918 11.8348C85.7666 11.9849 86.252 12.4247 86.1795 12.5448C85.9892 12.865 85.4906 12.6218 85.3484 13.0029C85.3363 13.038 85.7554 13.5518 85.6766 13.6132C85.0927 14.0866 84.3353 14.0961 83.7488 14.5274C83.4622 14.7368 83.2251 15.399 82.9188 15.5728C82.6607 15.7196 82.2477 15.7535 81.8521 15.8275C81.4413 15.8932 81.0456 16.0121 80.9273 16.3106C80.7758 16.6863 81.3135 17.0789 81.5336 17.5012C81.9684 18.3111 80.4332 17.685 80.1957 17.5888C80.1882 17.5849 80.3027 17.2248 79.9281 17.1353C79.331 16.7445 80.1957 17.5842 80.1957 17.5888C80.0464 17.5207 79.465 17.9512 79.4619 18.1461C79.4615 18.2508 79.9595 18.6306 79.9505 18.6774C79.7345 19.6981 79.2598 20.5347 78.1924 21.3083C78.1232 21.3525 78.053 21.3941 77.9818 21.4329C77.9599 21.4367 77.4901 20.9186 77.4443 20.9342C76.7987 21.1324 77.1188 22.0128 77.0961 22.7363C77.0738 23.4588 76.6362 23.6337 75.5927 22.9619C75.3971 23.3468 74.585 23.356 74.1023 23.3391C73.6229 23.3204 74.4367 24.4089 74.4271 24.4518C74.394 24.6091 74.3493 24.7452 74.2965 24.8623C74.1375 25.5553 73.463 25.307 72.953 25.6144C72.6737 25.7787 72.3939 26.3209 72.3464 26.5956C72.3072 26.8137 72.0006 26.6832 72.0918 26.8959C72.1053 26.9228 72.5898 27.2866 72.6059 27.3039C73.1465 27.7895 71.9812 26.8763 71.7565 26.7352C70.9542 26.1975 70.433 26.0736 70.8686 26.2191C70.9012 26.2252 71.1131 26.3093 71.4067 26.3902C71.9839 26.7492 72.8577 27.3582 72.8739 27.5376C72.8983 27.8791 72.2449 27.4669 72.2835 27.8352C72.286 27.8663 72.7193 28.0536 72.6152 28.2318C72.1335 29.0678 71.4023 29.8967 70.8562 30.8636C70.7787 30.9964 71.5192 31.2234 71.4132 31.4274C71.0142 32.1886 70.4266 33.0102 69.5839 33.6848C69.4481 33.7674 69.3069 33.8383 69.1595 33.8957C68.9786 33.9656 68.6599 33.5363 68.519 33.4607C67.6648 33.0051 68.4755 34.1501 68.4607 34.206C68.1234 35.5763 66.7261 35.2938 66.7335 36.3213C66.7341 36.3425 66.8659 36.5029 66.9813 36.6723C67.1983 36.9518 67.3548 37.2769 66.6104 36.9535C66.5347 36.9166 65.3374 36.4058 65.9876 37.0272C66.0285 37.0658 66.6607 37.3007 66.4847 37.4592C66.3081 37.6191 66.4876 38.1788 65.683 38.109C65.4292 38.0872 64.1922 37.6585 64.8921 38.4811C64.9445 38.5329 66.6432 40.1967 65.1674 39.5539C64.9241 39.4482 63.5048 38.5364 64.0065 39.3734C64.1026 39.5371 64.5088 39.5961 64.584 39.9212C64.6268 40.1091 64.5609 40.2551 64.4783 40.4092C64.4374 40.5143 64.3502 40.6555 64.6592 41.0595C64.7474 41.1718 65.6196 41.9513 64.7438 41.7293C64.6069 41.694 64.1557 41.3487 64.0364 41.429C63.4673 41.8083 63.3506 42.7479 62.4943 43.2767C62.1937 43.4593 61.553 42.7929 61.1661 42.9028C60.7779 43.0166 60.1925 43.3587 60.2639 43.8942C60.3281 44.4384 61.6763 45.1255 61.3498 45.6364C60.865 46.3769 60.2089 46.9748 59.5021 47.4372C58.1303 48.3083 56.0996 49.1722 53.3201 49.4648C52.7523 49.5096 53.1933 49.9127 52.5174 50.0349C52.4942 50.0429 52.4674 50.0483 52.4358 50.0505C50.9863 50.2072 47.8897 50.4821 46.8151 49.145C45.9481 48.0995 47.3225 47.6545 46.636 47.1689C46.3203 46.9379 45.6044 48.5138 45.5005 48.5461C45.4689 48.5574 45.4377 48.5674 45.407 48.5761C44.592 48.8563 44.2606 48.0718 43.5912 48.149C43.4487 48.1657 43.4279 48.8622 43.3082 48.869C42.8973 48.898 42.5647 48.5092 42.19 48.481C42.0217 48.47 41.9354 48.9862 41.795 48.9128C41.4584 48.7431 41.193 48.4571 40.9586 47.9012C40.9374 47.8506 41.2935 47.2653 41.0374 47.182C40.7628 47.0938 40.4842 46.8011 40.1628 46.7312C40.0019 46.6962 39.8275 46.7159 39.6294 46.8418C39.4511 46.9557 39.1924 48.1218 39.0385 47.2419C38.9996 47.0563 39.4287 45.6846 38.7238 46.793C38.6434 46.9889 37.3302 48.3849 37.226 47.2271C37.1987 46.9241 37.2918 45.7274 37.0459 45.8442C37.0105 45.864 36.9281 46.51 36.746 46.519C36.7157 46.5201 36.6853 46.5205 36.6547 46.5202C36.0087 46.5003 35.5195 46.2775 34.9701 46.2946C34.8167 46.3009 34.8064 46.9978 34.5857 46.9874C33.9806 46.9603 33.3867 46.5835 33.0264 46.2553C32.8964 46.134 33.1624 45.6405 33.1691 45.58C33.2657 44.5919 32.8012 45.8257 32.7421 45.8886C32.685 45.9411 32.6415 45.9745 32.6117 45.9946C32.2278 46.0594 31.9982 45.5563 31.5229 45.5756C31.3682 45.5796 31.3095 46.2119 31.2665 46.2583C30.8203 46.704 31.339 45.6784 31.1774 45.5064C30.7227 45.0199 30.0477 44.8742 29.4029 44.7386C29.1654 44.6893 29.1876 45.465 28.9724 45.4105C28.1826 45.2176 27.3873 44.9013 26.6905 44.4693C26.249 44.1969 25.8259 43.869 25.4694 43.5036C25.2987 43.3252 25.6943 42.9026 25.7125 42.7674C25.8463 41.8246 24.9136 42.6971 24.8463 42.7936C24.7221 42.9034 24.7013 42.972 24.8258 43.0539C24.9711 43.1344 25.1713 43.2416 26.0235 43.4286C25.8523 43.337 25.7194 43.2397 25.522 43.2255C23.9024 43.1207 22.4339 42.5159 21.1335 41.8429C20.7277 41.6184 20.3438 41.3952 19.9928 41.2003C19.2961 40.8154 18.7185 40.4362 18.1355 40.1031C17.6414 39.7548 17.1402 39.507 16.3806 39.4887C16.2971 39.4866 16.2896 40.2351 16.2189 40.2432C16.0091 40.2605 15.7974 40.2566 15.5801 40.2436C14.9022 40.2031 13.9941 40.0578 13.2726 40.2505C13.2002 40.2698 13.3307 40.9701 13.2223 41.0248C13.2076 41.0326 13.1932 41.0399 13.1791 41.0465C13.0752 41.092 13.0352 41.1063 13.1176 41.0695C13.1948 41.0338 13.3823 40.9378 13.495 40.8012C13.6021 40.6623 13.2891 40.1177 13.374 39.9955C13.5589 39.7033 13.3648 39.703 13.1539 39.9288C13.1465 39.9366 13.1427 39.9478 13.142 39.9617C13.1998 40.087 13.4544 40.6399 13.4576 40.6468C13.4443 40.6513 13.4074 40.6719 13.3941 40.6763C12.4884 41.1798 11.6209 41.8518 10.007 41.8732C9.89674 41.8745 8.95949 40.7436 8.96332 41.0922C9.19566 41.4266 9.48423 41.8084 9.74068 42.1596C9.6108 42.2846 9.47952 42.4048 9.34273 42.5244C7.99875 43.7029 6.22084 44.7288 4.73728 46.0652C4.66869 46.1273 5.32368 46.574 5.19475 46.6963C4.53217 47.3269 4.03285 48.0704 3.05805 48.3732C2.93124 48.4155 2.79905 48.4483 2.655 48.4761C2.5295 48.5005 1.56302 47.5322 1.50448 47.901C1.49366 47.9679 1.3165 48.4335 1.45889 48.7199C1.48169 48.7616 2.01129 49.1262 1.9284 49.2467C1.43775 49.9407 0.775085 50.4968 0.00463867 50.8544C-0.12055 50.9114 -0.578395 50.393 -0.672934 50.4311C-1.10823 50.6122 -1.24851 51.0366 -1.44967 51.2644C-1.61442 51.4729 -1.81554 51.6431 -2.12505 51.7268C-2.71361 51.8814 -3.61947 51.1169 -4.73115 50.7172C-4.88987 50.6632 -5.05197 50.8825 -5.63791 50.5537C-7.11976 49.7378 -8.63086 48.6554 -10.2166 47.7962C-10.3879 47.7044 -10.4524 47.8283 -10.5586 47.8913C-10.5838 47.9047 -10.6135 47.9173 -10.6351 47.8983C-10.6456 47.8884 -10.6533 47.869 -10.6473 47.8218C-10.6413 47.7933 -10.6298 47.7548 -10.6142 47.7099C-10.5863 47.6451 -10.5308 47.5412 -10.4809 47.4525C-10.4302 47.3627 -10.4034 47.3087 -10.4503 47.346C-10.4945 47.3798 -10.589 47.483 -10.6594 47.5612C-10.7983 47.7156 -10.8386 47.7221 -10.8897 47.7297C-10.9821 47.7318 -11.0467 47.6511 -11.1281 47.557C-11.1671 47.4961 -11.2273 46.9852 -11.4541 46.7476C-11.609 46.5789 -12.2544 46.3239 -12.425 46.0626C-12.5957 45.8022 -12.0342 45.984 -12.2076 45.6376C-12.3843 45.2897 -13.0879 44.9455 -12.9526 44.5623ZM72.1048 23.1014C71.4954 22.7563 72.9967 24.6198 72.8304 24.0156C72.8206 23.9842 72.135 23.1181 72.1048 23.1014ZM98.0599 3.43705C97.7071 3.12906 97.6021 3.20656 97.6389 3.44702C97.6935 3.76826 98.0127 4.38179 98.3638 4.72688C98.374 4.73664 98.3841 4.74618 98.3943 4.75549C99.026 5.33341 98.316 3.65927 98.0599 3.43705ZM100.93 0.842335C100.139 0.350864 101.85 3.28145 101.877 2.4612C101.879 2.41459 100.976 0.870716 100.93 0.842335ZM-4.37985 49.5488C-4.40895 49.5351 -4.55261 49.7002 -4.52835 49.7209C-3.95133 50.2281 -3.66786 49.9026 -4.37985 49.5488ZM103.663 -1.63957C103.337 -1.98888 103.249 -1.34665 103.654 -0.913855C103.978 -0.564747 104.063 -1.2031 103.663 -1.63957ZM61.9487 32.3731C61.9174 32.3551 61.7991 32.4637 61.965 32.5785C62.4981 32.9484 62.4725 32.6727 61.9487 32.3731ZM109.056 -4.9944C109.048 -4.99046 109.04 -4.98668 109.032 -4.98307C109.029 -4.98187 109.023 -4.97707 109.021 -4.97591C108.764 -4.909 108.058 -5.12087 107.496 -5.4539L107.551 -5.50314C107.239 -5.76605 106.997 -6.07438 106.925 -6.3221L106.757 -6.17285C106.687 -6.37435 106.746 -6.5764 107.041 -6.73874C107.247 -6.84838 107.279 -5.74506 107.662 -5.75481C108.022 -5.74457 107.898 -6.18137 108 -6.57196L107.987 -6.56333C107.974 -6.82488 108.045 -7.03207 108.454 -6.79147C108.611 -6.6906 109.124 -5.02277 109.056 -4.99013C109.056 -4.99156 109.056 -4.99298 109.056 -4.9944ZM70.166 20.9746C70.1409 20.954 69.9519 21.0721 69.9687 21.0992C70.367 21.7559 70.7383 21.5263 70.166 20.9746ZM55.8361 39.3105C55.7778 39.2797 55.4396 39.5733 55.4738 39.6236C56.2119 40.667 56.9961 39.9667 55.8361 39.3105ZM79.7768 9.28133C79.5171 8.51817 79.7276 8.25117 80.4531 8.91126C80.2189 9.01753 80.0086 9.16385 79.7768 9.28133Z" fill="#E6C5FF"/>
</g>
<path d="M92 62L109.203 35.3314L93.7768 10H106.618L108.557 14.3086L116.149 27.16L116.876 30.1314H117.522L118.249 27.16L125.841 14.3086L127.779 10H140.621L125.114 36.8171L142.478 62H129.233L126.971 57.5429L118.087 44.6171L117.36 41.6457H116.714L115.987 44.6171L107.507 57.5429L105.245 62H92Z" fill="white"/>
<path d="M155.573 62V10H166.718V62H155.573ZM148.466 62V52.4914L153.311 53.2343H168.98L173.826 52.4914V62H148.466ZM148.466 19.5086V10H173.826V19.5086L168.98 18.7657H153.311L148.466 19.5086Z" fill="white"/>
<path d="M183.072 62L183.879 56.0571V10H196.155L219.335 41.7943L221.435 49.3714H222.323V15.9429L221.516 10H234.277L233.469 15.9429V62H221.193L198.013 30.2057L195.913 22.6286H195.025V56.0571L195.832 62H183.072Z" fill="white"/>
<path d="M240.887 62L260.594 10H275.293L295 62H282.481L280.866 56.0571L269.155 22.1829L268.348 17.5771H267.54L266.732 22.1829L255.021 56.0571L253.406 62H240.887ZM251.387 50.1143V41.2H284.501V50.1143H251.387Z" fill="white"/>
</svg>
