<svg width="1924" height="330" viewBox="0 0 1924 330" fill="none" xmlns="http://www.w3.org/2000/svg" role="img" aria-label="Zinaplus">
  <title>Zinaplus</title>
  <!-- Mark (uses site primary / emerald) -->
  <g fill="#059669">
    <path d="M298.5 90V117.5H333V89.5C333 62.9903 311.51 41.5 285 41.5H200.5C191.663 41.5 184.5 34.3366 184.5 25.5V0H149.5V25.5C149.5 34.3366 142.337 41.5 133.5 41.5H49C21.938 41.5 0 63.438 0 90.5V117.5H36V88C36 81.3726 41.3726 76 48 76H101.625H137.033C145.132 76 153.019 73.4124 159.544 68.6147L166.5 63.5L174.725 69.2121C181.089 73.6315 188.652 76 196.4 76H232.875H284.5C292.232 76 298.5 82.268 298.5 90Z"/>
    <path d="M299 240V212.5H333.5V240.5C333.5 267.01 312.01 288.5 285.5 288.5H201C192.163 288.5 185 295.663 185 304.5V330H150V304.5C150 295.663 142.837 288.5 134 288.5H49.5C22.438 288.5 0.5 266.562 0.5 239.5V212.5H36.5V242C36.5 248.627 41.8726 254 48.5 254H102.125H137.533C145.632 254 153.519 256.588 160.044 261.385L167 266.5L175.225 260.788C181.589 256.368 189.152 254 196.9 254H233.375H285C292.732 254 299 247.732 299 240Z"/>
    <path d="M111.578 101.5C113.358 140.788 145.772 172.095 185.5 172.095C207.29 172.095 226.879 162.676 240.421 147.688C240.472 148.818 240.5 149.953 240.5 151.095C240.5 191.964 207.369 225.095 166.5 225.095C125.631 225.095 92.5 191.964 92.5 151.095C92.5 132.015 99.7207 114.623 111.578 101.5Z"/>
  </g>
  <!-- Wordmark (dark zinc for light theme) -->
  <g fill="#18181B">
    <path d="M459.843 271.267C453.568 271.267 448.609 269.547 444.965 266.106C441.322 262.665 439.5 258.11 439.5 252.443C439.5 247.18 440.917 242.828 443.751 239.387L576.737 85.1476L573.701 82.7187L560.948 96.6852H478.364C468.04 96.6852 460.146 93.4466 454.681 86.9694C449.418 80.4921 446.787 71.0799 446.787 58.7326H609.831C616.309 58.7326 621.268 60.3519 624.709 63.5905C628.352 66.8292 630.174 71.4847 630.174 77.5571C630.174 82.8199 628.757 87.1718 625.923 90.6128L494.455 244.852L497.492 247.281L509.94 233.315H599.508C609.629 233.315 617.321 236.553 622.584 243.031C628.049 249.508 630.781 258.92 630.781 271.267H459.843Z"/>
    <path d="M664.239 88.4875C664.239 78.3668 668.085 70.4726 675.777 64.805C683.671 58.935 694.702 56 708.871 56V241.513C708.871 251.836 704.924 259.831 697.03 265.499C689.338 271.166 678.408 274 664.239 274V88.4875Z"/>
    <path d="M748.304 90.9164C748.304 80.1885 751.948 71.6871 759.234 65.4123C766.521 59.1374 776.338 56 788.686 56L886.148 210.24L889.488 207.507L875.825 184.735V56C890.196 56 901.127 58.7326 908.616 64.1978C916.105 69.663 919.85 77.6583 919.85 88.1838V244.549C919.85 249.609 918.231 254.467 914.992 259.123C911.956 263.576 907.806 267.219 902.544 270.053C897.281 272.684 891.714 274 885.844 274L782.006 109.741L778.666 112.474L792.329 135.245V241.816C792.329 252.342 788.584 260.337 781.095 265.802C773.606 271.267 762.675 274 748.304 274V90.9164Z"/>
    <path d="M978.086 274C968.37 273.19 960.78 270.053 955.314 264.588C949.849 259.123 947.117 252.24 947.117 243.942C947.117 237.464 948.736 230.683 951.975 223.599L1020.59 70.8774C1022.82 65.8171 1025.65 62.0724 1029.09 59.6435C1032.74 57.2145 1037.19 56 1042.45 56C1047.72 56 1052.07 57.2145 1055.51 59.6435C1059.15 62.0724 1062.09 65.8171 1064.31 70.8774L1132.93 223.599C1136.17 230.683 1137.79 237.363 1137.79 243.638C1137.79 252.139 1135.06 259.123 1129.59 264.588C1124.13 270.053 1116.44 273.19 1106.52 274L1081.01 218.437H1003.59L978.086 274ZM1067.35 180.181L1036.08 102.454L1031.83 104.276L1040.02 124.618L1016.95 180.181H1067.35Z"/>
    <path d="M1165.19 79.0752C1165.19 73.2052 1167.32 68.3473 1171.57 64.5014C1176.02 60.6555 1181.38 58.7326 1187.66 58.7326H1270.55C1285.53 58.7326 1298.78 61.7688 1310.32 67.8412C1321.86 73.7112 1330.76 82.0102 1337.04 92.7382C1343.52 103.466 1346.76 115.915 1346.76 130.084C1346.76 144.455 1343.62 157.106 1337.34 168.036C1331.07 178.764 1322.16 187.063 1310.62 192.933C1299.29 198.803 1285.93 201.738 1270.55 201.738H1209.82V241.816C1209.82 252.342 1205.98 260.337 1198.28 265.802C1190.8 271.267 1179.76 274 1165.19 274V79.0752ZM1270.55 163.178C1280.67 163.178 1288.46 160.344 1293.93 154.677C1299.39 148.807 1302.12 140.508 1302.12 129.78C1302.12 119.457 1299.39 111.461 1293.93 105.794C1288.46 100.126 1280.67 97.2925 1270.55 97.2925H1209.82V163.178H1270.55Z"/>
    <path d="M1397.6 271.267C1391.13 271.267 1385.56 268.94 1380.91 264.284C1376.45 259.629 1374.23 254.062 1374.23 247.585V88.1838C1374.23 77.2535 1377.87 69.1569 1385.16 63.8942C1392.44 58.6314 1403.68 56 1418.86 56V232.708H1497.19C1507.31 232.708 1515.01 236.047 1520.27 242.727C1525.73 249.204 1528.47 258.718 1528.47 271.267H1397.6Z"/>
    <path d="M1628.65 274C1611.24 274 1595.56 270.559 1581.59 263.677C1567.83 256.592 1557 246.775 1549.1 234.226C1541.41 221.676 1537.56 207.608 1537.56 192.022V88.1838C1537.56 77.6583 1541.31 69.663 1548.8 64.1978C1556.49 58.7326 1567.62 56 1582.2 56V192.022C1582.2 205.179 1586.35 215.705 1594.65 223.599C1603.15 231.291 1614.48 235.136 1628.65 235.136C1642.82 235.136 1654.05 231.291 1662.35 223.599C1670.85 215.705 1675.11 205.179 1675.11 192.022V88.1838C1675.11 77.6583 1678.85 69.663 1686.34 64.1978C1694.03 58.7326 1705.16 56 1719.74 56V192.022C1719.74 207.608 1715.79 221.676 1707.9 234.226C1700.2 246.775 1689.38 256.592 1675.41 263.677C1661.64 270.559 1646.06 274 1628.65 274Z"/>
    <path d="M1837.6 274C1809.26 274 1786.8 269.142 1770.2 259.426C1753.8 249.71 1745.6 236.25 1745.6 219.045C1745.6 211.555 1748.44 205.483 1754.11 200.827C1759.77 196.172 1769.29 193.844 1782.65 193.844C1783.46 208.62 1788.52 219.854 1797.83 227.546C1807.34 235.035 1820.6 238.78 1837.6 238.78C1850.76 238.78 1861.08 236.553 1868.57 232.1C1876.06 227.445 1879.81 221.069 1879.81 212.972C1879.81 207.507 1878.39 203.054 1875.55 199.613C1872.72 196.172 1867.76 193.034 1860.68 190.201C1853.79 187.367 1843.67 184.432 1830.31 181.396C1810.07 176.74 1794.18 171.477 1782.65 165.607C1771.11 159.737 1762.71 152.754 1757.45 144.657C1752.39 136.561 1749.86 126.44 1749.86 114.295C1749.86 102.758 1753.3 92.637 1760.18 83.9331C1767.26 75.0269 1777.08 68.1449 1789.63 63.2869C1802.18 58.429 1816.75 56 1833.35 56C1849.14 56 1863.31 58.1254 1875.86 62.3761C1888.41 66.4243 1898.22 72.1931 1905.31 79.6825C1912.39 87.1718 1915.94 95.7744 1915.94 105.49C1915.94 112.98 1913.1 118.951 1907.43 123.404C1901.97 127.655 1892.86 129.982 1880.11 130.387C1879.1 116.825 1874.95 106.907 1867.66 100.632C1860.37 94.3575 1848.94 91.2201 1833.35 91.2201C1820.6 91.2201 1810.78 93.2442 1803.9 97.2925C1797.02 101.341 1793.58 107.211 1793.58 114.903C1793.58 120.165 1794.89 124.517 1797.52 127.958C1800.16 131.197 1804.61 134.132 1810.88 136.763C1817.36 139.395 1826.57 142.026 1838.51 144.657C1859.36 149.313 1875.86 154.677 1888 160.749C1900.35 166.619 1909.26 173.704 1914.72 182.003C1920.39 190.302 1923.22 200.524 1923.22 212.669C1923.22 225.016 1919.68 235.845 1912.6 245.156C1905.71 254.467 1895.8 261.653 1882.84 266.713C1870.09 271.571 1855.01 274 1837.6 274Z"/>
  </g>
</svg>
